PathFileType	4	(X/Y/Z)	Kaydara	
DataRate	CameraRate	NumFrames	NumMarkers	Units	OrigDataRate	OrigDataStartFrame	OrigNumFrames	
60.00	60.00	5	74	mm	60.00	1643	67	
Frame#	Time	Y_rasi			Y_rpsi			Y_lpsi			Y_fneck			Y_bneck			Y_fhead			Y_rhead			Y_rshld			Y_relbtop			Y_relbext			Y_relblow			Y_rwrext			Y_rwrtop			Y_rwrlow			Y_lshld			Y_lelbext			Y_lelblow			Y_lelbtop			Y_lwrext			Y_lwrtop			Y_lwrlow			Y_rtopleg			Y_ltopleg			Y_rkneefr			Y_rkneebk			Y_rkneeis			Y_lkneefr			Y_lknssbk			Y_lkneeis			Y_rankfr			Y_rankis			Y_rankbk			Y_lankfr			Y_lankbk			Y_lankis			Y_lhead			Y_lasi			D_rpsi			D_lpsi			D_fneck			D_bneck			D_fhead			D_rhead			D_lhead			D_rshld			D_relbtop			D_relbext			D_relblow			D_rwrext			D_rwrtop			D_rwrlow			D_lshld			D_lelbext			D_lelblow			D_lelbtop			D_lwrext			D_lwrtop			D_lwrlow			D_rtopleg			D_ltopleg			D_rkneefr			D_rkneebk			D_rkneeis			D_lkneefr			D_lknssbk			D_lkneeis			D_rankfr			D_rankis			D_rankbk			D_lankfr			D_lankbk			D_lankis			D_lasi			D_rasi			
		X1	Y1	Z1	X2	Y2	Z2	X3	Y3	Z3	X4	Y4	Z4	X5	Y5	Z5	X6	Y6	Z6	X7	Y7	Z7	X8	Y8	Z8	X9	Y9	Z9	X10	Y10	Z10	X11	Y11	Z11	X12	Y12	Z12	X13	Y13	Z13	X14	Y14	Z14	X15	Y15	Z15	X16	Y16	Z16	X17	Y17	Z17	X18	Y18	Z18	X19	Y19	Z19	X20	Y20	Z20	X21	Y21	Z21	X22	Y22	Z22	X23	Y23	Z23	X24	Y24	Z24	X25	Y25	Z25	X26	Y26	Z26	X27	Y27	Z27	X28	Y28	Z28	X29	Y29	Z29	X30	Y30	Z30	X31	Y31	Z31	X32	Y32	Z32	X33	Y33	Z33	X34	Y34	Z34	X35	Y35	Z35	X36	Y36	Z36	X37	Y37	Z37	X38	Y38	Z38	X39	Y39	Z39	X40	Y40	Z40	X41	Y41	Z41	X42	Y42	Z42	X43	Y43	Z43	X44	Y44	Z44	X45	Y45	Z45	X46	Y46	Z46	X47	Y47	Z47	X48	Y48	Z48	X49	Y49	Z49	X50	Y50	Z50	X51	Y51	Z51	X52	Y52	Z52	X53	Y53	Z53	X54	Y54	Z54	X55	Y55	Z55	X56	Y56	Z56	X57	Y57	Z57	X58	Y58	Z58	X59	Y59	Z59	X60	Y60	Z60	X61	Y61	Z61	X62	Y62	Z62	X63	Y63	Z63	X64	Y64	Z64	X65	Y65	Z65	X66	Y66	Z66	X67	Y67	Z67	X68	Y68	Z68	X69	Y69	Z69	X70	Y70	Z70	X71	Y71	Z71	X72	Y72	Z72	X73	Y73	Z73	X74	Y74	Z74	

59	27.367	-569.04579	1087.35229	-138.55746	-554.64031	1074.46548	-319.18940	-331.51726	1061.22192	-236.84723	-492.42306	1426.73645	-148.66280	-406.66405	1485.02045	-218.39060	-546.48643	1618.42178	-66.20807	-506.98586	1577.44995	-236.33217	-620.65147	1425.98404	-300.70887	-630.26146	1146.16188	-384.42013	-641.61247	1162.10777	-443.59875	-574.95117	1146.55334	-460.05238	-664.26353	947.33551	-279.03631	-681.48636	976.34476	-252.06942	-645.11497	996.93192	-235.99621	-277.15240	1382.61185	-83.69455	-168.71914	1083.23486	-134.18577	-209.44267	1072.59521	-179.27109	-234.81485	1107.10594	-98.97645	-393.79341	940.10208	-59.25867	-388.24081	956.28609	-15.76032	-406.19808	998.94028	-23.88287	-632.36614	917.64992	-281.83308	-300.94580	904.70749	-130.65958	-637.93793	415.09407	-289.96445	-613.52070	459.22066	-363.91815	-542.84809	421.20129	-276.73792	-340.80139	474.28284	-121.99217	-276.82911	496.12743	-214.30988	-396.26019	468.14800	-200.34643	-632.16866	143.75441	-333.54103	-561.87233	134.74493	-342.85908	-601.05141	136.73567	-398.31085	-276.73862	132.18605	-170.84475	-258.96830	130.02843	-239.11648	-332.61772	125.58919	-208.68160	-390.82912	1565.97733	-138.38930	-419.35768	1074.62440	-84.45589	-998.61526	1176.71425	590.43507	-1120.69443	1178.92349	460.48538	-970.01320	1600.00946	414.34120	-1069.15489	1652.73911	470.44395	-931.80313	1772.01813	270.87320	-980.21461	1801.12579	440.92247	-1092.56470	1774.22012	340.84263	-895.36392	1566.30585	585.75500	-873.46024	1200.94093	608.27991	-837.16354	1219.52805	662.82471	-913.46092	1207.03590	686.88911	-790.82298	926.27563	627.68707	-753.87001	941.61026	612.40498	-763.98903	951.92139	566.23474	-1193.99719	1539.61777	337.03556	-1197.04018	1165.52475	302.08115	-1181.23215	1149.40018	376.54858	-1136.10512	1170.36118	313.39508	-1143.51578	915.60204	288.26014	-1116.09863	931.20255	255.47323	-1079.41490	933.91891	286.16587	-878.82126	1041.61072	603.09357	-1121.83693	1027.97752	343.66940	-701.91696	594.68414	416.05869	-740.91019	586.42128	523.91003	-816.62003	564.97803	430.98679	-1017.83569	468.86314	375.75233	-1114.62479	514.91524	415.73017	-1034.77127	502.41314	489.67785	-756.33278	224.76162	531.64268	-827.79739	220.77389	502.19940	-818.63861	232.41100	588.37963	-1054.23805	158.61479	411.30405	-1078.90038	151.46565	488.05130	-993.79707	165.50186	452.60479	-1013.20595	1185.62485	339.95445	-869.62326	1186.51627	484.96758 
60	27.383	-568.61031	1087.76726	-138.00545	-554.87976	1074.22668	-318.81559	-331.36505	1061.06438	-237.11046	-491.53896	1426.40717	-148.74495	-406.08612	1484.95712	-218.89647	-545.71041	1617.12875	-65.19718	-506.45485	1577.59430	-235.72470	-620.33306	1425.22903	-300.61977	-630.67032	1146.59676	-383.57281	-641.77849	1161.54861	-443.28243	-575.24967	1145.80994	-460.06836	-666.54068	950.45235	-276.25427	-682.75360	979.94156	-249.22890	-645.64522	1000.08995	-234.01850	-276.02556	1382.48260	-84.91181	-168.55738	1082.51144	-135.23562	-209.39543	1071.96999	-180.27246	-234.48263	1106.65802	-99.96069	-394.04808	940.31448	-60.12762	-388.73348	956.53099	-16.94003	-406.21479	999.12018	-24.44106	-632.30690	917.77626	-280.70789	-300.66843	904.76479	-130.73403	-638.00644	415.07851	-289.50560	-613.64464	459.27696	-363.48202	-542.75116	421.26019	-276.47942	-340.48592	474.33308	-122.09457	-276.63303	496.21529	-214.59799	-395.97641	468.16788	-200.40152	-632.43229	143.80547	-333.31902	-562.22717	134.60058	-342.51907	-601.07922	136.78835	-398.21354	-276.67646	132.16037	-170.87355	-259.11751	129.96833	-239.06763	-332.54700	125.60496	-208.68881	-389.80728	1565.74066	-138.26585	-418.67989	1074.71710	-84.16520	-997.42073	1176.66840	590.72617	-1120.10994	1179.20174	460.99457	-967.87689	1599.86954	414.74220	-1066.93840	1652.87003	471.14033	-930.13802	1772.50076	271.35950	-977.72499	1801.08871	441.76395	-1090.53055	1774.46472	342.03819	-893.74794	1565.57327	586.14059	-871.12648	1201.00761	610.73555	-834.85565	1219.67934	665.29121	-911.10130	1207.01797	689.33372	-786.92047	926.59645	630.91305	-750.13680	942.04094	615.09991	-760.88173	952.44019	569.13113	-1191.94260	1540.13275	337.36755	-1196.58302	1165.89714	303.34017	-1180.61409	1149.87259	377.76695	-1135.24544	1170.51125	314.00982	-1143.71002	915.68039	290.06487	-1116.59851	931.20461	256.87103	-1079.54910	933.85178	287.31586	-877.47169	1041.58401	603.15300	-1121.01685	1028.08243	343.84106	-700.74631	594.63959	416.77071	-739.58656	586.42517	524.50054	-815.19569	564.86382	431.50482	-1017.55974	468.95557	375.03445	-1114.50005	514.96399	415.73975	-1034.55345	502.42027	489.65504	-755.36270	224.96380	533.04352	-826.80710	221.12829	504.07021	-817.44408	232.81431	590.25864	-1054.16718	158.58818	411.28391	-1078.84590	151.44548	488.04626	-993.72391	165.43535	452.54810	-1012.33963	1185.59731	340.16254	-868.61000	1186.22223	485.02560 
61	27.400	-568.24478	1088.16010	-137.63278	-555.04131	1073.98125	-318.49003	-331.32904	1060.95436	-237.15691	-489.77760	1425.97046	-148.85185	-405.42599	1484.86252	-219.49261	-544.23904	1616.50009	-64.34926	-505.92030	1577.70218	-235.31397	-619.97437	1424.29611	-300.48407	-631.12282	1147.16843	-382.28287	-641.83693	1160.74898	-442.73304	-575.49599	1144.62936	-459.70829	-670.90561	955.14496	-272.23034	-685.43343	985.55763	-245.07048	-647.81517	1004.72260	-230.75813	-274.50134	1382.35748	-86.35174	-168.26565	1081.84769	-136.47189	-209.24467	1071.35086	-181.42584	-233.77855	1106.18752	-101.28178	-393.94863	940.47874	-61.00120	-388.72345	956.66908	-17.93024	-406.02585	999.31068	-25.19800	-632.17827	917.47002	-279.22268	-300.40014	904.76181	-130.68577	-638.06152	415.07278	-289.03236	-613.76049	459.33697	-363.03894	-542.75654	421.27983	-276.16741	-340.35767	474.39941	-122.04451	-276.61629	496.25011	-214.67686	-395.86693	468.16410	-200.33373	-632.43050	143.81772	-333.16971	-562.20688	134.62742	-342.42378	-601.11645	136.83147	-398.10837	-276.71011	132.18396	-170.83845	-259.13681	129.97095	-239.06595	-332.56508	125.60706	-208.68322	-388.82126	1565.45578	-138.59196	-418.06438	1074.86710	-83.80666	-996.16638	1176.61797	591.00014	-1119.15894	1179.36600	461.65043	-965.50232	1599.77249	415.32623	-1064.57329	1653.03818	472.04510	-928.26607	1772.80945	271.86607	-974.96864	1801.13525	442.60502	-1088.27423	1774.81339	343.47412	-891.30775	1565.00015	586.30779	-867.99362	1201.15631	613.39905	-831.74683	1219.96811	667.91557	-907.94449	1207.02652	692.03651	-781.65627	926.97289	634.35986	-745.19997	942.43958	617.58091	-756.69464	953.30956	572.13890	-1190.15068	1540.71381	338.23437	-1195.36545	1166.19377	304.38450	-1179.72473	1150.43289	379.11995	-1134.05907	1170.90820	314.69185	-1143.55774	916.10199	291.51392	-1116.98105	931.36765	258.02458	-1079.45702	934.14345	287.53378	-876.10130	1041.57303	602.81570	-1120.37361	1028.09418	344.09241	-700.53749	594.13860	417.26013	-739.17168	585.88753	525.18456	-814.96376	564.15688	432.35062	-1017.35016	469.08401	374.62254	-1114.39285	515.02487	415.98557	-1034.40231	502.46326	489.80194	-754.40926	224.75128	534.29619	-826.23505	220.87072	506.31046	-815.99564	232.73865	592.34119	-1054.15962	158.60515	411.30478	-1078.85414	151.44694	488.06923	-993.70842	165.41937	452.55234	-1011.85120	1185.62744	340.60371	-867.41699	1185.96504	484.71329 
62	27.417	-567.78198	1088.49503	-137.33610	-555.16327	1073.75610	-318.20316	-331.29921	1060.88730	-237.22502	-489.40907	1426.14471	-148.97881	-404.95426	1484.74014	-219.95821	-542.44850	1616.38153	-63.94199	-505.26718	1577.72354	-235.05623	-619.68018	1423.19275	-300.38000	-631.87187	1147.82394	-380.79418	-642.10243	1159.96887	-441.91868	-575.76515	1143.05099	-458.78452	-676.92307	961.34422	-266.89465	-688.58627	993.24875	-239.90055	-649.80339	1010.62973	-227.15452	-272.88189	1382.13852	-88.01909	-167.77847	1081.30287	-138.05826	-208.99853	1070.90591	-182.82858	-233.31156	1105.76736	-102.90660	-393.37749	940.68375	-61.68328	-388.38596	956.83365	-18.58764	-405.22118	999.55605	-25.90476	-632.04872	917.38235	-278.30185	-300.33474	904.80057	-130.52155	-637.97302	415.06187	-288.61938	-613.84895	459.37984	-362.67860	-542.65217	421.35319	-275.98476	-340.16293	474.50523	-122.02044	-276.61610	496.34468	-214.65445	-395.89272	468.22685	-200.12791	-632.16938	143.68689	-333.17760	-561.80340	134.82013	-342.60780	-601.12621	136.84772	-398.02567	-276.65939	132.15006	-170.87309	-259.15716	129.96269	-239.05369	-332.61826	125.63235	-208.64315	-387.99393	1565.28488	-138.62856	-417.46864	1074.93301	-83.45679	-994.55276	1176.71227	591.05671	-1117.73094	1179.32602	461.72646	-963.49350	1599.74731	416.34998	-1062.01561	1653.41019	473.33839	-926.24702	1772.75085	272.46546	-971.79947	1801.36948	443.48900	-1085.89272	1775.39917	345.03105	-888.41988	1564.15070	585.94738	-863.86398	1201.50635	616.25164	-827.65594	1220.52872	670.61935	-903.77594	1207.16599	695.03792	-775.85472	927.61276	637.49290	-739.71512	943.31757	620.48462	-751.53244	954.41330	575.25856	-1188.67310	1541.65787	339.68796	-1194.57848	1167.11609	305.76199	-1178.68958	1151.19995	380.50442	-1132.94174	1171.75514	314.80347	-1143.28934	916.83121	292.87228	-1117.09610	932.12791	258.84304	-1079.23172	934.75693	287.56693	-873.96393	1041.58936	602.17182	-1120.03212	1028.19839	344.78462	-701.57364	593.04150	417.64008	-739.15741	585.26024	525.86479	-815.91515	563.17982	433.64418	-1017.27745	469.28322	374.84764	-1114.19815	515.09624	416.12083	-1034.34708	502.49851	489.97959	-753.57086	223.90251	535.29461	-825.92926	220.04745	508.36899	-814.05212	231.86728	594.10339	-1054.08836	158.65918	411.36230	-1078.97141	151.48442	488.14934	-993.73146	165.44834	452.64214	-1011.37901	1185.73082	340.85445	-866.39847	1185.84801	484.47792 
63	27.433	-567.35184	1088.81210	-137.04604	-555.27374	1073.54836	-317.91780	-331.24413	1060.72350	-237.30715	-488.11508	1426.06689	-149.10557	-404.51805	1484.38995	-220.75338	-540.39318	1616.89026	-63.91310	-504.54842	1577.72308	-235.26463	-619.31244	1421.88644	-300.38561	-633.14445	1148.32092	-378.91300	-642.88345	1159.35402	-441.05404	-576.60912	1141.11122	-457.80369	-682.67891	969.38026	-259.30977	-691.50879	1002.73804	-233.91882	-650.94223	1017.07855	-222.69363	-271.78555	1382.14508	-89.08037	-167.47656	1080.88203	-139.68290	-208.85469	1070.55199	-184.28738	-232.78788	1105.80978	-104.47581	-392.81071	940.84061	-62.50301	-387.83470	957.00729	-19.45604	-404.63875	999.69627	-26.67585	-632.11132	917.31323	-277.72324	-300.34920	904.84497	-130.33889	-637.94353	415.00038	-288.37971	-613.93635	459.41360	-362.42828	-542.64252	421.37947	-275.71230	-340.14027	474.57706	-121.83376	-276.60234	496.41602	-214.48940	-395.88528	468.24593	-199.92476	-632.25082	143.69515	-333.06789	-562.10411	134.66640	-342.37293	-601.13232	136.86917	-397.98344	-276.67540	132.13749	-170.82140	-259.15962	129.96922	-239.05367	-332.52968	125.60753	-208.62085	-386.25210	1564.85794	-140.21297	-417.01145	1074.30595	-83.28179	-992.77878	1176.83327	591.06953	-1116.49063	1179.78043	462.56302	-961.36612	1599.79553	417.13791	-1059.42574	1653.89557	474.94205	-924.19357	1772.38937	273.01725	-968.41408	1801.67465	444.28585	-1083.19901	1776.16730	346.58733	-884.95155	1563.61206	585.69008	-858.61664	1202.19994	619.29905	-822.65732	1221.31439	673.35777	-898.27995	1207.76764	698.39432	-769.43581	928.73596	640.23125	-733.17413	944.25270	623.12389	-745.07965	956.02409	577.87449	-1187.34612	1542.70294	341.80508	-1194.13773	1168.16345	307.41524	-1177.51373	1152.24152	381.97960	-1131.79710	1173.51349	314.33178	-1142.62718	917.89719	293.92836	-1117.06474	933.17390	259.68548	-1078.81775	935.85678	288.16854	-871.93275	1041.74606	601.27041	-1119.75189	1028.46451	345.31086	-703.93578	591.65947	417.75227	-739.89059	583.99746	526.51054	-817.90833	561.66332	434.99672	-1016.98624	469.24450	376.04481	-1113.94348	515.18444	416.07117	-1034.29703	502.47440	490.10387	-752.82639	222.63220	535.90702	-825.67940	218.56985	510.64251	-811.72623	230.27494	595.87879	-1053.99582	158.65531	411.39805	-1079.48700	151.64171	488.26340	-993.80302	165.42606	452.79182	-1010.81207	1185.96077	340.83157	-864.87686	1185.96657	483.71159 
